<svg width="40" height="40" viewBox="0 0 40 40" fill="none" xmlns="http://www.w3.org/2000/svg">
<circle cx="20" cy="20" r="20" fill="#586CF5"/>
<path d="M25.0899 10.8199C24.1702 10.0635 23.0933 9.52198 21.9376 9.23479C20.7819 8.94761 19.5767 8.92204 18.4099 9.15995C16.8563 9.47377 15.4309 10.242 14.3146 11.3672C13.1983 12.4924 12.4414 13.9239 12.1399 15.4799C11.9198 16.6467 11.9598 17.8476 12.2571 18.9971C12.5544 20.1466 13.1017 21.2163 13.8599 22.1299C14.5636 22.924 14.967 23.9395 14.9999 24.9999V27.9999C14.9999 28.7956 15.316 29.5587 15.8786 30.1213C16.4412 30.6839 17.2043 30.9999 17.9999 30.9999H21.9999C22.7956 30.9999 23.5587 30.6839 24.1213 30.1213C24.6839 29.5587 24.9999 28.7956 24.9999 27.9999V25.1899C25.0335 24.0191 25.4637 22.8944 26.2199 21.9999C27.5451 20.3607 28.1697 18.2648 27.9581 16.1676C27.7465 14.0704 26.7158 12.1414 25.0899 10.7999V10.8199ZM22.9999 27.9999C22.9999 28.2652 22.8946 28.5195 22.707 28.7071C22.5195 28.8946 22.2652 28.9999 21.9999 28.9999H17.9999C17.7347 28.9999 17.4804 28.8946 17.2928 28.7071C17.1053 28.5195 16.9999 28.2652 16.9999 27.9999V26.9999H22.9999V27.9999ZM24.6699 20.7599C23.6644 21.9525 23.0778 23.442 22.9999 24.9999H20.9999V21.9999C20.9999 21.7347 20.8946 21.4804 20.707 21.2928C20.5195 21.1053 20.2652 20.9999 19.9999 20.9999C19.7347 20.9999 19.4804 21.1053 19.2928 21.2928C19.1053 21.4804 18.9999 21.7347 18.9999 21.9999V24.9999H16.9999C16.9736 23.468 16.4069 21.9947 15.3999 20.8399C14.7356 20.0439 14.2888 19.0894 14.1033 18.0693C13.9177 17.0492 13.9996 15.9985 14.341 15.0195C14.6825 14.0405 15.2718 13.1667 16.0515 12.4833C16.8312 11.7999 17.7747 11.3301 18.7899 11.1199C19.6625 10.9403 20.5641 10.9572 21.4293 11.1694C22.2945 11.3816 23.1016 11.7839 23.792 12.3469C24.4824 12.9099 25.0387 13.6196 25.4206 14.4245C25.8025 15.2293 26.0004 16.1091 25.9999 16.9999C26.0073 18.3698 25.537 19.6994 24.6699 20.7599V20.7599Z" fill="white"/>
</svg>
